<?xml version="1.0" encoding="UTF-8"?>
<svg xmlns="http://www.w3.org/2000/svg" xmlns:xlink="http://www.w3.org/1999/xlink" width="290pt" height="172pt" viewBox="0 0 290 172" version="1.1">
<g id="surface1">
<path style=" stroke:none;fill-rule:evenodd;fill:rgb(100%,100%,100%);fill-opacity:1;" d="M 17.804688 0.507813 L 272.710938 0.507813 C 281.785156 0.507813 289.210938 7.933594 289.210938 17.007813 L 289.210938 154.445313 C 289.210938 163.519531 281.785156 170.945313 272.710938 170.945313 L 17.804688 170.945313 C 8.730469 170.945313 1.304688 163.519531 1.304688 154.445313 L 1.304688 17.007813 C 1.304688 7.933594 8.730469 0.507813 17.804688 0.507813 "/>
<path style="fill:none;stroke-width:9.5981;stroke-linecap:butt;stroke-linejoin:miter;stroke:rgb(0%,18.821716%,36.863708%);stroke-opacity:1;stroke-miterlimit:2.61313;" d="M 178.046875 1714.921875 L 2727.109375 1714.921875 C 2817.851563 1714.921875 2892.109375 1640.664063 2892.109375 1549.921875 L 2892.109375 175.546875 C 2892.109375 84.804688 2817.851563 10.546875 2727.109375 10.546875 L 178.046875 10.546875 C 87.304688 10.546875 13.046875 84.804688 13.046875 175.546875 L 13.046875 1549.921875 C 13.046875 1640.664063 87.304688 1714.921875 178.046875 1714.921875 Z M 178.046875 1714.921875 " transform="matrix(0.1,0,0,-0.1,0,172)"/>
<path style=" stroke:none;fill-rule:nonzero;fill:rgb(0%,70.599365%,58.399963%);fill-opacity:1;" d="M 127.867188 145.089844 L 127.867188 124.632813 L 141.070313 124.632813 L 141.070313 128.03125 L 132.257813 128.03125 L 132.257813 132.964844 L 140.476563 132.964844 L 140.476563 136.363281 L 132.257813 136.363281 L 132.257813 145.089844 L 127.867188 145.089844 "/>
<path style=" stroke:none;fill-rule:nonzero;fill:rgb(0%,70.599365%,58.399963%);fill-opacity:1;" d="M 150.058594 145.511719 C 145.410156 145.511719 142.632813 142.453125 142.632813 137.976563 C 142.632813 133.5 145.410156 130.441406 150.058594 130.441406 C 154.703125 130.441406 157.480469 133.5 157.480469 137.976563 C 157.480469 142.453125 154.703125 145.511719 150.058594 145.511719 Z M 150.058594 142.683594 C 152.664063 142.683594 153.089844 140.242188 153.089844 137.976563 C 153.089844 135.710938 152.664063 133.277344 150.058594 133.277344 C 147.449219 133.277344 147.027344 135.710938 147.027344 137.976563 C 147.027344 140.242188 147.449219 142.683594 150.058594 142.683594 "/>
<path style=" stroke:none;fill-rule:nonzero;fill:rgb(0%,70.599365%,58.399963%);fill-opacity:1;" d="M 167.09375 145.511719 C 162.445313 145.511719 159.667969 142.453125 159.667969 137.976563 C 159.667969 133.5 162.445313 130.441406 167.09375 130.441406 C 171.738281 130.441406 174.519531 133.5 174.519531 137.976563 C 174.519531 142.453125 171.738281 145.511719 167.09375 145.511719 Z M 167.09375 142.683594 C 169.699219 142.683594 170.125 140.242188 170.125 137.976563 C 170.125 135.710938 169.699219 133.277344 167.09375 133.277344 C 164.484375 133.277344 164.0625 135.710938 164.0625 137.976563 C 164.0625 140.242188 164.484375 142.683594 167.09375 142.683594 "/>
<path style=" stroke:none;fill-rule:nonzero;fill:rgb(0%,70.599365%,58.399963%);fill-opacity:1;" d="M 187.128906 124.632813 L 191.378906 124.632813 L 191.378906 142.253906 C 191.378906 143.191406 191.464844 144.152344 191.519531 145.089844 L 187.273438 145.089844 C 187.214844 144.40625 187.15625 143.757813 187.15625 143.078125 L 187.101563 143.078125 C 186.164063 144.746094 184.578125 145.511719 182.738281 145.511719 C 178.574219 145.511719 176.617188 141.632813 176.617188 137.976563 C 176.617188 134.152344 178.855469 130.441406 183.273438 130.441406 C 184.753906 130.441406 186.28125 131.320313 187.070313 132.507813 L 187.128906 132.507813 Z M 184.066406 142.679688 C 186.367188 142.679688 187.128906 139.933594 187.128906 137.976563 C 187.128906 136.019531 186.367188 133.277344 184.066406 133.277344 C 181.351563 133.277344 181.011719 135.792969 181.011719 137.976563 C 181.011719 140.160156 181.351563 142.679688 184.066406 142.679688 "/>
<path style=" stroke:none;fill-rule:nonzero;fill:rgb(0%,18.798828%,37.298584%);fill-opacity:1;" d="M 76.742188 44.789063 L 95.828125 44.789063 L 105.367188 61.320313 L 95.828125 77.847656 L 76.742188 77.847656 L 67.199219 61.320313 L 76.742188 44.789063 "/>
<path style=" stroke:none;fill-rule:nonzero;fill:rgb(0%,18.798828%,37.298584%);fill-opacity:1;" d="M 76.648438 83.296875 L 95.734375 83.296875 L 105.273438 99.824219 L 95.734375 116.351563 L 76.648438 116.351563 L 67.105469 99.824219 L 76.648438 83.296875 "/>
<path style=" stroke:none;fill-rule:nonzero;fill:rgb(0%,70.599365%,58.399963%);fill-opacity:1;" d="M 44.769531 23.871094 L 63.855469 23.871094 L 73.394531 40.402344 L 63.855469 56.929688 L 44.769531 56.929688 L 35.226563 40.402344 L 44.769531 23.871094 "/>
<path style=" stroke:none;fill-rule:nonzero;fill:rgb(0%,18.821716%,36.863708%);fill-opacity:1;" d="M 141.570313 108 L 128.15625 108 L 128.15625 45.519531 L 141.570313 45.519531 L 141.570313 108 "/>
<path style=" stroke:none;fill-rule:nonzero;fill:rgb(0%,18.821716%,36.863708%);fill-opacity:1;" d="M 158.492188 108 L 158.492188 45.515625 L 198.828125 45.515625 L 198.828125 55.898438 L 171.910156 55.898438 L 171.910156 70.953125 L 197.007813 70.953125 L 197.007813 81.34375 L 171.910156 81.34375 L 171.910156 108 L 158.492188 108 "/>
<path style=" stroke:none;fill-rule:nonzero;fill:rgb(0%,18.821716%,36.863708%);fill-opacity:1;" d="M 239.941406 63.339844 C 239.417969 57.023438 236.046875 53.910156 229.550781 53.910156 C 224.621094 53.910156 219.601563 56.507813 219.601563 61.960938 C 219.601563 68.714844 225.65625 69.492188 231.027344 70.785156 C 240.546875 73.214844 254.566406 75.890625 254.566406 88.4375 C 254.566406 103.925781 241.066406 109.296875 227.648438 109.296875 C 213.367188 109.296875 203.246094 103.765625 203.679688 88.011719 L 217.347656 88.011719 C 216.835938 94.933594 220.808594 99.601563 227.820313 99.601563 C 233.191406 99.601563 240.28125 97.960938 240.28125 91.296875 C 240.28125 83.941406 231.371094 83.425781 226.007813 82.039063 C 217.265625 79.867188 205.320313 75.890625 205.320313 64.816406 C 205.320313 50.535156 218.476563 44.21875 231.289063 44.21875 C 243.402344 44.21875 252.835938 50.796875 252.835938 63.339844 L 239.941406 63.339844 "/>
</g>
</svg>
