<?xml version="1.0" encoding="UTF-8"?>
<svg xmlns="http://www.w3.org/2000/svg" xmlns:xlink="http://www.w3.org/1999/xlink" width="483.84pt" height="457.15pt" viewBox="0 0 483.84 457.15" version="1.1">
<defs>
<clipPath id="clip1">
  <path d="M 92 173 L 483.839844 173 L 483.839844 457.148438 L 92 457.148438 Z M 92 173 "/>
</clipPath>
</defs>
<g id="surface1">
<path style=" stroke:none;fill-rule:nonzero;fill:rgb(13.299561%,11.799622%,12.199402%);fill-opacity:1;" d="M 177.914063 193.914063 L 182.640625 179.363281 "/>
<path style=" stroke:none;fill-rule:nonzero;fill:rgb(13.299561%,11.799622%,12.199402%);fill-opacity:1;" d="M 149.777344 282.773438 L 149.199219 282.355469 "/>
<path style=" stroke:none;fill-rule:nonzero;fill:rgb(13.299561%,11.799622%,12.199402%);fill-opacity:1;" d="M 258.398438 336.996094 L 243.304688 347.917969 "/>
<path style=" stroke:none;fill-rule:nonzero;fill:rgb(13.299561%,11.799622%,12.199402%);fill-opacity:1;" d="M 224.328125 336.960938 L 241.351563 349.328125 "/>
<path style=" stroke:none;fill-rule:nonzero;fill:rgb(13.299561%,11.799622%,12.199402%);fill-opacity:1;" d="M 184.410156 173.914063 L 182.640625 179.363281 "/>
<path style=" stroke:none;fill-rule:nonzero;fill:rgb(13.299561%,11.799622%,12.199402%);fill-opacity:1;" d="M 149.199219 282.355469 L 155.695313 262.351563 L 172.710938 274.714844 "/>
<path style=" stroke:none;fill-rule:nonzero;fill:rgb(13.299561%,11.799622%,12.199402%);fill-opacity:1;" d="M 241.351563 349.332031 L 243.304688 347.917969 "/>
<path style=" stroke:none;fill-rule:nonzero;fill:rgb(13.299561%,11.799622%,12.199402%);fill-opacity:1;" d="M 184.410156 173.914063 L 0 173.914063 L 149.199219 282.355469 L 155.695313 262.351563 L 61.535156 193.914063 L 198.941406 193.914063 L 205.4375 173.914063 "/>
<path style=" stroke:none;fill-rule:nonzero;fill:rgb(13.299561%,11.799622%,12.199402%);fill-opacity:1;" d="M 326.507813 263.042969 L 333.011719 283.019531 L 315.988281 295.335938 L 333.011719 283.019531 Z M 326.507813 263.042969 "/>
<path style=" stroke:none;fill-rule:nonzero;fill:rgb(13.299561%,11.799622%,12.199402%);fill-opacity:1;" d="M 297.492188 173.914063 L 304.003906 193.914063 L 282.972656 193.914063 "/>
<path style=" stroke:none;fill-rule:nonzero;fill:rgb(13.299561%,11.799622%,12.199402%);fill-opacity:1;" d="M 309.484375 275.359375 L 326.507813 263.042969 "/>
<path style=" stroke:none;fill-rule:nonzero;fill:rgb(13.299561%,11.799622%,12.199402%);fill-opacity:1;" d="M 184.410156 173.914063 L 205.4375 173.914063 L 240.902344 64.6875 L 276.460938 173.914063 L 297.492188 173.914063 L 240.878906 0 "/>
<g clip-path="url(#clip1)" clip-rule="nonzero">
<path style=" stroke:none;fill-rule:nonzero;fill:rgb(13.299561%,11.799622%,12.199402%);fill-opacity:1;" d="M 483.839844 173.914063 L 297.492188 173.914063 L 304.003906 193.914063 L 422.070313 193.914063 L 326.507813 263.042969 L 309.484375 275.359375 L 315.988281 295.335938 L 351.605469 404.738281 L 258.402344 336.996094 L 241.378906 324.628906 L 224.328125 336.960938 L 130.449219 404.871094 L 166.214844 294.71875 L 149.777344 282.773438 L 166.214844 294.71875 L 172.710938 274.714844 L 155.695313 262.351563 L 149.199219 282.355469 L 92.492188 457.015625 L 241.351563 349.332031 L 389.699219 457.148438 L 333.011719 283.023438 "/>
</g>
<path style=" stroke:none;fill-rule:nonzero;fill:rgb(13.299561%,11.799622%,12.199402%);fill-opacity:1;" d="M 276.460938 173.914063 L 282.972656 193.914063 L 304.003906 193.914063 L 297.492188 173.914063 L 276.460938 173.914063 "/>
<path style=" stroke:none;fill-rule:nonzero;fill:rgb(13.299561%,11.799622%,12.199402%);fill-opacity:1;" d="M 195.976563 204.003906 L 220.671875 204.003906 L 220.671875 244.53125 L 258.402344 204.003906 L 288.164063 204.003906 L 240.890625 257.972656 L 300.667969 318.199219 L 267.320313 318.199219 L 220.460938 272.554688 L 220.460938 318.199219 L 195.976563 318.199219 "/>
</g>
</svg>
